HIERARCHY
ROOT Hips
{
  OFFSET 44.1785 98.6001 5.20279
  CHANNELS 6 Xposition Yposition Zposition Zrotation Xrotation Yrotation
  JOINT spine
  {
    OFFSET 0 8.30104 0.477351
    CHANNELS 3 Zrotation Xrotation Yrotation
    JOINT spine1
    {
      OFFSET 0 10.4565 0
      CHANNELS 3 Zrotation Xrotation Yrotation
      JOINT spine2
      {
        OFFSET 0 10.0192 0
        CHANNELS 3 Zrotation Xrotation Yrotation
        JOINT Neck
        {
          OFFSET 0 25.7235 1.22641
          CHANNELS 3 Zrotation Xrotation Yrotation
          JOINT Head
          {
            OFFSET 0 7.77175 0
            CHANNELS 3 Zrotation Xrotation Yrotation
            End Site
            {
              OFFSET 0 18.812 -6.20394
            }
          }
        }
        JOINT RightShoulder
        {
          OFFSET -4.2188 10.82 -0.587439
          CHANNELS 3 Zrotation Xrotation Yrotation
          JOINT RightArm
          {
            OFFSET 0 14.1914 0
            CHANNELS 3 Zrotation Xrotation Yrotation
            JOINT RightArmRoll
            {
              OFFSET 0 7.16408 0
              CHANNELS 3 Zrotation Xrotation Yrotation
              JOINT RightForeArm
              {
                OFFSET 0 20.8665 0
                CHANNELS 3 Zrotation Xrotation Yrotation
                JOINT RightForeArmRoll
                {
                  OFFSET 0 8.03921 0
                  CHANNELS 3 Zrotation Xrotation Yrotation
                  JOINT RightHand
                  {
                    OFFSET 0 16.133 0
                    CHANNELS 3 Zrotation Xrotation Yrotation
                    End Site
                    {
                      OFFSET 0 0 0
                    }
                  }
                }
              }
            }
          }
        }
        JOINT LeftShoulder
        {
          OFFSET 4.2188 10.82 -0.587439
          CHANNELS 3 Zrotation Xrotation Yrotation
          JOINT LeftArm
          {
            OFFSET 0 14.1914 0
            CHANNELS 3 Zrotation Xrotation Yrotation
            JOINT LeftArmRoll
            {
              OFFSET 0 7.16408 0
              CHANNELS 3 Zrotation Xrotation Yrotation
              JOINT LeftForeArm
              {
                OFFSET 0 20.8665 0
                CHANNELS 3 Zrotation Xrotation Yrotation
                JOINT LeftForeArmRoll
                {
                  OFFSET 0 8.03921 0
                  CHANNELS 3 Zrotation Xrotation Yrotation
                  JOINT LeftHand
                  {
                    OFFSET 0 16.133 0
                    CHANNELS 3 Zrotation Xrotation Yrotation
                    End Site
                    {
                      OFFSET 0 0 0
                    }
                  }
                }
              }
            }
          }
        }
      }
    }
  }
  JOINT RightUpLeg
  {
    OFFSET -7.35773 -1.34921 -1.13182
    CHANNELS 3 Zrotation Xrotation Yrotation
    JOINT RightUpLegRoll
    {
      OFFSET 0 18.9168 0
      CHANNELS 3 Zrotation Xrotation Yrotation
      JOINT RightLeg
      {
        OFFSET 0 -23.4256 0
        CHANNELS 3 Zrotation Xrotation Yrotation
        JOINT RightLegRoll
        {
          OFFSET 0 23.5023 0
          CHANNELS 3 Zrotation Xrotation Yrotation
          JOINT RightFoot
          {
            OFFSET 0 19.5617 0
            CHANNELS 3 Zrotation Xrotation Yrotation
            JOINT RightToeBase
            {
              OFFSET 0 16.3526 0
              CHANNELS 3 Zrotation Xrotation Yrotation
              End Site
              {
                OFFSET 0.00693125 7.91943 -0.912837
              }
            }
          }
        }
      }
    }
  }
  JOINT LeftUpLeg
  {
    OFFSET 7.35773 -1.34921 -1.13182
    CHANNELS 3 Zrotation Xrotation Yrotation
    JOINT LeftUpLegRoll
    {
      OFFSET 0 18.9169 0
      CHANNELS 3 Zrotation Xrotation Yrotation
      JOINT LeftLeg
      {
        OFFSET 0 23.4255 0
        CHANNELS 3 Zrotation Xrotation Yrotation
        JOINT LeftLegRoll
        {
          OFFSET 0 23.7195 0
          CHANNELS 3 Zrotation Xrotation Yrotation
          JOINT LeftFoot
          {
            OFFSET 0 19.3444 0
            CHANNELS 3 Zrotation Xrotation Yrotation
            JOINT LeftToeBase
            {
              OFFSET 0 16.3526 0
              CHANNELS 3 Zrotation Xrotation Yrotation
              End Site
              {
                OFFSET -0.0310629 7.91943 -0.912837
              }
            }
          }
        }
      }
    }
  }
}
MOTION
Frames: 9
Frame Time: 0.00208333
45.8159 99.0871 9.62527 0.648938 -3.11307 3.60534 0.301118 -0.729957 0.268679 0.590205 2.55117 0.51989 0.584812 4.19617 0.510488 -7.61524 19.7455 5.32167 3.39725 -6.69105 3.39503 56.0311 1.37482 1.22474 137.688 38.5411 -58.9776 7.83416e-006 -9.8284e-006 -8.92462e-006 60.5161 71.989 -52.3716 -2.52778e-006 7.02624e-006 -3.00896 8.02889 -4.95087 0.697367 -63.4348 -3.61437 2.60649 -93.264 30.571 12.8342 5.20401e-006 1.38394e-006 -5.07625e-009 -19.9931 52.7236 11.3359 2.81269e-006 1.64294e-005 3.00001 -8.02885 -4.95086 -0.697421 173.749 0.250428 1.85372 180 7.01517e-015 178.798 177.245 8.01046 179.576 1.92193e-007 -8.29158e-006 0.0938895 -18.2301 67.241 18.9135 8.14451 25.2322 -3.49116 -173.159 -0.750633 -0.771194 4.54188e-006 -4.6773e-006 -1.20258 -3.95254 -6.93419 0.380077 1.01451e-006 -3.05325e-006 -0.0860626 18.3639 67.39 -19.0516 -8.13649 25.2327 3.48773 
45.7983 99.086 9.62613 0.648071 -3.11648 3.68389 0.301578 -0.730763 0.270472 0.592092 2.54906 0.522133 0.586658 4.19406 0.512696 -7.50569 19.9393 5.43146 3.23055 -6.91426 3.50479 56.1972 1.36974 1.19772 137.278 38.509 -58.5519 7.83416e-006 -9.8284e-006 -8.92462e-006 60.194 71.9649 -52.0519 -2.52778e-006 7.02624e-006 -3.00896 8.02889 -4.95087 0.697367 -63.4126 -3.61675 2.6061 -93.3077 30.548 12.777 5.20401e-006 1.38394e-006 -5.07626e-009 -19.9491 52.7729 11.3351 2.81269e-006 1.64294e-005 3.00001 -8.02885 -4.95086 -0.697421 173.765 0.255065 1.84819 180 7.01517e-015 178.798 177.246 8.05442 179.576 1.92193e-007 -8.29158e-006 0.094275 -18.2357 67.2481 18.9197 8.14451 25.2322 -3.49116 -173.133 -0.753524 -0.781458 4.54188e-006 -4.6773e-006 -1.20259 -3.94912 -6.90306 0.380901 1.01451e-006 -3.05325e-006 -0.0860589 18.3543 67.378 -19.0413 -8.13649 25.2327 3.48773 
45.7657 99.0869 9.64152 0.647094 -3.11943 3.76232 0.301986 -0.731658 0.272313 0.593909 2.54676 0.524432 0.588433 4.19176 0.51496 -7.39633 20.1343 5.54124 3.06448 -7.14011 3.61463 56.3627 1.36472 1.17076 136.87 38.4713 -58.1271 7.83416e-006 -9.8284e-006 -8.92462e-006 59.8797 71.9427 -51.7411 -2.52778e-006 7.02624e-006 -3.00896 8.02889 -4.95087 0.697367 -63.3912 -3.61852 2.60541 -93.3491 30.5254 12.7189 5.20401e-006 1.38394e-006 -5.07626e-009 -19.9051 52.8222 11.3345 2.81269e-006 1.64294e-005 3.00001 -8.02885 -4.95086 -0.697421 173.782 0.260016 1.8424 180 7.01516e-015 178.798 177.248 8.098 179.576 1.92193e-007 -8.29158e-006 0.0946413 -18.2415 67.2554 18.9261 8.14451 25.2322 -3.49116 -173.107 -0.756254 -0.791766 4.54188e-006 -4.6773e-006 -1.20261 -3.94577 -6.87132 0.381752 1.01451e-006 -3.05325e-006 -0.086056 18.3447 67.3658 -19.0308 -8.13649 25.2327 3.48773 
45.7409 99.088 9.65405 0.646041 -3.12207 3.84066 0.302357 -0.732616 0.274188 0.595677 2.54432 0.52677 0.590159 4.18932 0.517264 -7.28733 20.3302 5.65113 2.89911 -7.36778 3.72457 56.5279 1.35974 1.14386 136.464 38.4287 -57.7032 7.83416e-006 -9.8284e-006 -8.92462e-006 59.5711 71.9216 -51.4368 -2.52778e-006 7.02624e-006 -3.00896 8.02889 -4.95087 0.697367 -63.3703 -3.61986 2.60451 -93.3889 30.503 12.6603 5.20401e-006 1.38394e-006 -5.07626e-009 -19.8612 52.8715 11.334 2.81269e-006 1.64294e-005 3.00001 -8.02885 -4.95086 -0.697421 173.798 0.265188 1.83645 180 7.01516e-015 178.797 177.25 8.14134 179.576 1.92193e-007 -8.29158e-006 0.094994 -18.2474 67.2629 18.9326 8.14451 25.2322 -3.49116 -173.081 -0.758871 -0.802105 4.54188e-006 -4.6773e-006 -1.20263 -3.94247 -6.83914 0.382621 1.01451e-006 -3.05325e-006 -0.0860537 18.3349 67.3535 -19.0202 -8.13649 25.2327 3.48773 
45.7346 99.0872 9.66192 0.644948 -3.12452 3.91896 0.302707 -0.733609 0.276081 0.597417 2.54181 0.52913 0.591855 4.1868 0.519591 -7.1789 20.5266 5.76123 2.73453 -7.59645 3.83464 56.6929 1.35479 1.11698 136.06 38.3818 -57.2797 7.83416e-006 -9.8284e-006 -8.92462e-006 59.2659 71.9009 -51.1363 -2.52778e-006 7.02624e-006 -3.00896 8.02889 -4.95087 0.697367 -63.3497 -3.62096 2.6035 -93.4279 30.4808 12.6014 5.20401e-006 1.38394e-006 -5.07626e-009 -19.8172 52.9208 11.3335 2.81269e-006 1.64294e-005 3.00001 -8.02885 -4.95086 -0.697421 173.815 0.270485 1.83039 180 7.01516e-015 178.797 177.251 8.18452 179.576 1.92193e-007 -8.29158e-006 0.095339 -18.2534 67.2706 18.9393 8.14451 25.2322 -3.49116 -173.055 -0.761424 -0.812462 4.54188e-006 -4.6773e-006 -1.20265 -3.9392 -6.80671 0.3835 1.01451e-006 -3.05325e-006 -0.0860517 18.3251 67.3412 -19.0096 -8.13649 25.2327 3.48773 
45.7012 99.0912 9.67704 0.643849 -3.12693 3.99724 0.303051 -0.734611 0.27798 0.599149 2.53927 0.531496 0.593545 4.18426 0.521923 -7.07122 20.7229 5.87164 2.57082 -7.82531 3.94489 56.8578 1.34985 1.0901 135.657 38.3312 -56.8565 7.83416e-006 -9.8284e-006 -8.92462e-006 58.9622 71.8799 -50.8374 -2.52778e-006 7.02624e-006 -3.00896 8.02889 -4.95087 0.697367 -63.3292 -3.62199 2.60246 -93.4667 30.4586 12.5424 5.20401e-006 1.38394e-006 -5.07625e-009 -19.7733 52.9701 11.333 2.81269e-006 1.64294e-005 3.00001 -8.02885 -4.95086 -0.697421 173.832 0.275814 1.8243 180 7.01516e-015 178.797 177.253 8.22767 179.576 1.92193e-007 -8.29158e-006 0.0956821 -18.2595 67.2783 18.9459 8.14451 25.2322 -3.49116 -173.029 -0.763961 -0.822822 4.54188e-006 -4.6773e-006 -1.20267 -3.93594 -6.77422 0.384382 1.01451e-006 -3.05325e-006 -0.0860498 18.3153 67.3289 -18.9989 -8.13649 25.2327 3.48773 
45.6972 99.0838 9.63025 0.642782 -3.12941 4.07554 0.303407 -0.735595 0.279869 0.600897 2.53677 0.533851 0.595249 4.18177 0.524243 -6.96447 20.9188 5.98248 2.40804 -8.05353 4.05534 57.0229 1.34489 1.06322 135.256 38.2775 -56.4332 7.83416e-006 -9.8284e-006 -8.92462e-006 58.6578 71.8579 -50.5374 -2.52778e-006 7.02624e-006 -3.00896 8.02889 -4.95087 0.697367 -63.3086 -3.62314 2.60147 -93.506 30.4362 12.4836 5.20401e-006 1.38394e-006 -5.07626e-009 -19.7294 53.0194 11.3325 2.81269e-006 1.64294e-005 3.00001 -8.02885 -4.95086 -0.697421 173.849 0.28108 1.81827 180 7.01516e-015 178.796 177.255 8.2709 179.576 1.92193e-007 -8.29158e-006 0.096029 -18.2655 67.2859 18.9526 8.14451 25.2322 -3.49116 -173.003 -0.766531 -0.833174 4.54188e-006 -4.6773e-006 -1.2027 -3.93267 -6.74185 0.385258 1.01451e-006 -3.05325e-006 -0.0860478 18.3056 67.3165 -18.9883 -8.13649 25.2327 3.48773 
45.6733 99.0901 9.6522 0.641784 -3.13211 4.15391 0.303788 -0.736534 0.281734 0.602679 2.53437 0.536177 0.59699 4.17936 0.526536 -6.85885 21.1139 6.09384 2.24627 -8.28031 4.16601 57.1882 1.3399 1.0363 134.855 38.2214 -56.0094 7.83416e-006 -9.8284e-006 -8.92462e-006 58.3509 71.8342 -50.2342 -2.52778e-006 7.02624e-006 -3.00896 8.02889 -4.95087 0.697367 -63.2876 -3.62461 2.60063 -93.5465 30.4136 12.4253 5.20401e-006 1.38394e-006 -5.07626e-009 -19.6855 53.0687 11.3319 2.81269e-006 1.64294e-005 3.00001 -8.02885 -4.95086 -0.697421 173.865 0.286189 1.81236 180 7.01516e-015 178.796 177.257 8.31431 179.576 1.92193e-007 -8.29158e-006 0.0963856 -18.2714 67.2934 18.9591 8.14451 25.2322 -3.49116 -172.977 -0.76918 -0.843505 4.54188e-006 -4.6773e-006 -1.20271 -3.92936 -6.70979 0.386122 1.01451e-006 -3.05325e-006 -0.0860453 18.2959 67.3043 -18.9778 -8.13649 25.2327 3.48773 
45.6365 99.0899 9.665 0.640892 -3.13516 4.23238 0.304212 -0.737403 0.283561 0.604518 2.53213 0.53846 0.598787 4.17712 0.528783 -6.75453 21.3077 6.20583 2.08555 -8.50483 4.27695 57.3538 1.33486 1.00932 134.454 38.1634 -55.5847 7.83416e-006 -9.8284e-006 -8.92462e-006 58.0394 71.8081 -49.9256 -2.52778e-006 7.02624e-006 -3.00896 8.02889 -4.95087 0.697367 -63.2659 -3.62656 2.60003 -93.589 30.3907 12.3677 5.20401e-006 1.38394e-006 -5.07625e-009 -19.6415 53.118 11.3313 2.81269e-006 1.64294e-005 3.00001 -8.02885 -4.95086 -0.697421 173.882 0.291046 1.80665 180 7.01516e-015 178.796 177.258 8.35799 179.576 1.92193e-007 -8.29158e-006 0.0967576 -18.2771 67.3006 18.9654 8.14451 25.2322 -3.49116 -172.951 -0.771958 -0.8538 4.54188e-006 -4.6773e-006 -1.20273 -3.92599 -6.67823 0.386965 1.01451e-006 -3.05325e-006 -0.0860422 18.2864 67.2922 -18.9675 -8.13649 25.2327 3.48773 
